# xmcd
#
# Track frame offsets: 
#        150
#        16095
#        27899
#        44708
#        53748
#        66678
#        79764
#        94014
#        108072
#        121359
#        134904
#        145606
#        159451
#        177891
#        190755
#        200708
#        212103
#        225042
#        238328
#        247819
#        263003
#        278010
#        291917
#        302777
#
# Disc length: 4197 seconds
#
# Revision: 2
# Processed by: cddbd v1.5.1PL2 Copyright (c) Steve Scherf et al.
# Submitted via: ExactAudioCopy v0.95b4
#
DISCID=56106318
DTITLE=Various Artist - Can't Stop Playing That Boogie Woogie
DYEAR=2001
DGENRE=Boogie Woogie
TTITLE0=Chas (Mr. Boogie Woogie) Hall - Boogie Woogie Jive
TTITLE1=Albert Ammons - Boogie Woogie At The Civic Opera
TTITLE2=Albert Ammons - Boogie Woogie Blues
TTITLE3=Mauriec Rocco - The Darktown Strutters' Ball
TTITLE4=Billy Penrose - Boogie In The Ballroom
TTITLE5=Billy Penrose - Harlem Boogie
TTITLE6=Forrest Skyes - Tonky Boogie
TTITLE7=Montana Taylor - Fo' Day Blues
TTITLE8="Mr. Freddy" Shayne - Chestnut Street Boogie
TTITLE9=Cecil Gant - Nashville Jumps
TTITLE10=Cecil Gant - Cecil Boogie
TTITLE11=Jimmy Yancey - Jimmy's Rocks
TTITLE12=Jimmy Yancey - White Sock Stomp
TTITLE13=Big Joe Turner and Pete Johnson - Roll 'Em Pete
TTITLE14=Meade 'Lux' Lewis - Glendale Glide
TTITLE15=Meade 'Lux' Lewis - Boogie Tidal
TTITLE16=Hadda Brooks - Hollywood House Party Boogie
TTITLE17=Hazel Scott - Brown Bee Boogie
TTITLE18=Camille Howard - X-Temporaneous Boogie
TTITLE19=Pete Johnson - Climbin' And Screamin'
TTITLE20=Pete Johnson - B and O Blues
TTITLE21=Oscar Peterson - The Sheik Of Araby
TTITLE22=Sammy Price - 133rd Street Boogie
TTITLE23=Chas (Mr. Boogie Woogie) Hall - Foot Tapper
EXTD=
EXTT0=
EXTT1=
EXTT2=
EXTT3=
EXTT4=
EXTT5=
EXTT6=
EXTT7=
EXTT8=
EXTT9=
EXTT10=
EXTT11=
EXTT12=
EXTT13=
EXTT14=
EXTT15=
EXTT16=
EXTT17=
EXTT18=
EXTT19=
EXTT20=
EXTT21=
EXTT22=
EXTT23=
PLAYORDER=
